<svg width="20" height="20" viewBox="0 0 20 20" fill="none" xmlns="http://www.w3.org/2000/svg">
  <path d="M15 7.5C16.3807 7.5 17.5 6.38071 17.5 5C17.5 3.61929 16.3807 2.5 15 2.5C13.6193 2.5 12.5 3.61929 12.5 5C12.5 6.38071 13.6193 7.5 15 7.5Z" fill="currentColor"/>
  <path d="M5 7.5C6.38071 7.5 7.5 6.38071 7.5 5C7.5 3.61929 6.38071 2.5 5 2.5C3.61929 2.5 2.5 3.61929 2.5 5C2.5 6.38071 3.61929 7.5 5 7.5Z" fill="currentColor"/>
  <path d="M15 8.75C12.9289 8.75 11.25 10.4289 11.25 12.5V15.625C11.25 15.9702 11.5298 16.25 11.875 16.25H18.125C18.4702 16.25 18.75 15.9702 18.75 15.625V12.5C18.75 10.4289 17.0711 8.75 15 8.75Z" fill="currentColor"/>
  <path d="M5 8.75C2.92893 8.75 1.25 10.4289 1.25 12.5V15.625C1.25 15.9702 1.52984 16.25 1.875 16.25H8.125C8.47016 16.25 8.75 15.9702 8.75 15.625V12.5C8.75 10.4289 7.07107 8.75 5 8.75Z" fill="currentColor"/>
</svg> 