<svg width="30" height="30" viewBox="0 0 30 30" fill="none" xmlns="http://www.w3.org/2000/svg">
  <rect width="30" height="30" rx="8" fill="#FEE2E2"/>
  <path d="M15 7.5C20.25 7.5 24.375 11.625 24.375 16.875C24.375 17.625 24.3 18.375 24.075 19.05C23.925 19.65 23.325 20.025 22.725 19.875C22.125 19.725 21.75 19.125 21.9 18.525C22.05 18 22.125 17.475 22.125 16.875C22.125 12.825 18.975 9.75 15 9.75C11.025 9.75 7.875 12.825 7.875 16.875C7.875 17.475 7.95 18 8.1 18.525C8.25 19.125 7.875 19.725 7.275 19.875C6.675 20.025 6.075 19.65 5.925 19.05C5.7 18.375 5.625 17.625 5.625 16.875C5.625 11.625 9.75 7.5 15 7.5ZM15 11.25C17.475 11.25 19.5 13.275 19.5 15.75C19.5 16.35 19.35 16.95 19.125 17.475C18.825 18.15 18.15 18.6 17.4 18.6H12.6C11.85 18.6 11.175 18.15 10.875 17.475C10.65 16.95 10.5 16.35 10.5 15.75C10.5 13.275 12.525 11.25 15 11.25ZM11.25 21.75C11.85 21.75 12.375 22.275 12.375 22.875C12.375 23.475 11.85 24 11.25 24C10.65 24 10.125 23.475 10.125 22.875C10.125 22.275 10.65 21.75 11.25 21.75ZM15 21C15.825 21 16.5 21.675 16.5 22.5C16.5 23.325 15.825 24 15 24C14.175 24 13.5 23.325 13.5 22.5C13.5 21.675 14.175 21 15 21ZM18.75 21.75C19.35 21.75 19.875 22.275 19.875 22.875C19.875 23.475 19.35 24 18.75 24C18.15 24 17.625 23.475 17.625 22.875C17.625 22.275 18.15 21.75 18.75 21.75Z" fill="#EF4444"/>
</svg> 