<svg width="30" height="30" viewBox="0 0 30 30" fill="none" xmlns="http://www.w3.org/2000/svg">
  <rect width="30" height="30" rx="8" fill="#E0E7FF"/>
  <path d="M20.625 9.375C20.625 12.1875 18.9375 14.5312 16.5 15.4688C19.5 16.5 21.5625 19.125 21.875 22.5H19.375C19.0625 19.6875 16.5625 17.5 13.125 17.5H11.25C7.8125 17.5 5 14.6875 5 11.25V7.5H8.75C8.75 11.25 11.5 14.375 15 14.375C18.125 14.375 20.625 12.1875 20.625 9.375Z" fill="#8B5CF6"/>
  <path d="M15 12.5C16.5625 12.5 17.8125 11.25 17.8125 9.6875C17.8125 8.125 16.5625 6.875 15 6.875C13.4375 6.875 12.1875 8.125 12.1875 9.6875C12.1875 11.25 13.4375 12.5 15 12.5Z" fill="#8B5CF6"/>
  <path d="M11.25 21.25C12.5 21.25 13.4375 20.3125 13.4375 19.0625C13.4375 17.8125 12.5 16.875 11.25 16.875C10 16.875 9.0625 17.8125 9.0625 19.0625C9.0625 20.3125 10 21.25 11.25 21.25Z" fill="#8B5CF6"/>
  <path d="M11.25 22.5C9.0625 22.5 7.1875 23.75 6.875 25.625H15.625C15.3125 23.75 13.4375 22.5 11.25 22.5Z" fill="#8B5CF6"/>
</svg> 